<?xml version="1.0" encoding="UTF-8" standalone="no"?>
<svg width="27px" height="30px" viewBox="0 0 27 30" version="1.1" xmlns="http://www.w3.org/2000/svg" xmlns:xlink="http://www.w3.org/1999/xlink" xmlns:sketch="http://www.bohemiancoding.com/sketch/ns">
    <!-- Generator: Sketch 3.4.2 (15857) - http://www.bohemiancoding.com/sketch -->
    <title>Shape</title>
    <desc>Created with Sketch.</desc>
    <defs></defs>
    <g id="Welcome" stroke="none" stroke-width="1" fill="none" fill-rule="evenodd" sketch:type="MSPage">
        <g id="Tablet-Portrait" sketch:type="MSArtboardGroup" transform="translate(-206.000000, -263.000000)" fill-opacity="0.109999999" fill="#000000">
            <g id="Flex" sketch:type="MSLayerGroup" transform="translate(35.000000, 104.000000)">
                <g id="avatar-others-empty" transform="translate(159.000000, 150.000000)" sketch:type="MSShapeGroup">
                    <path d="M25.3336096,23.8439019 C27.3343255,23.8439019 29.0420446,23.1408326 30.4569987,21.7351542 C31.872416,20.3294758 32.5800089,18.6332291 32.5800089,16.6461842 C32.5800089,14.6593693 31.872416,12.9631227 30.4569987,11.5572142 C29.041813,10.1515358 27.3338622,9.44869657 25.3336096,9.44869657 C23.333357,9.44869657 21.6254062,10.1515358 20.2102205,11.5572142 C18.7948032,12.9631227 18.0872104,14.6593693 18.0872104,16.6461842 C18.0872104,18.6332291 18.7948032,20.3294758 20.2102205,21.7351542 C21.6256378,23.1408326 23.333357,23.8439019 25.3336096,23.8439019 Z M38.2880017,29.401278 C38.1559794,28.6701412 37.9889829,27.9923787 37.7877069,27.3675305 C37.5864309,26.7429124 37.3159011,26.1337083 36.9761176,25.5401486 C36.6365657,24.9465888 36.246521,24.4404525 35.8059837,24.0217398 C35.3654464,23.6030271 34.8278611,23.2689771 34.1927647,23.0191299 C33.557205,22.7692826 32.8558658,22.6441289 32.0885156,22.6441289 C31.9752544,22.6441289 31.7109783,22.7784851 31.2959189,23.0471974 C30.8808596,23.3159098 30.4122965,23.6159105 29.8902296,23.9469697 C29.3681627,24.2777987 28.6885957,24.5780295 27.8522232,24.8462818 C27.0156192,25.1149941 26.1760041,25.2493503 25.3329148,25.2493503 C24.490057,25.2493503 23.650442,25.1149941 22.8138379,24.8462818 C21.9774655,24.5780295 21.2978984,24.2777987 20.7758315,23.9469697 C20.2537647,23.6159105 19.7852016,23.3159098 19.3701422,23.0471974 C18.9548512,22.7784851 18.6908067,22.6441289 18.5775456,22.6441289 C17.8101953,22.6441289 17.1088561,22.7692826 16.4735281,23.0191299 C15.8382,23.2689771 15.3003832,23.6032571 14.8600774,24.0217398 C14.4197717,24.4404525 14.0297271,24.9465888 13.6901752,25.5401486 C13.3506232,26.1337083 13.0800935,26.7431424 12.8788175,27.3675305 C12.6775415,27.9923787 12.5107765,28.6701412 12.3787543,29.401278 C12.2465005,30.1324148 12.1584856,30.8131681 12.1144782,31.4444581 C12.0704708,32.075748 12.0484671,32.722222 12.0484671,33.3845704 C12.0484671,34.883884 12.5077655,36.0680128 13.4261307,36.9364966 C14.3444959,37.8047503 15.5648909,38.2388772 17.087084,38.2388772 L33.5801352,38.2388772 C35.1023284,38.2388772 36.3224917,37.8047503 37.2410885,36.9364966 C38.1596853,36.0680128 38.6187521,34.8841141 38.6187521,33.3845704 C38.6187521,32.722222 38.5967484,32.0755179 38.5522778,31.4444581 C38.5080387,30.8133982 38.4200239,30.1324148 38.2880017,29.401278 Z" id="Shape"></path>
                </g>
            </g>
        </g>
    </g>
</svg>